{
	"asset":{
		"version":"2.0",
		"generator":"Created using the official Cinema 4D glTF Exporter. Previous Build: 1.000x275765."
	},
	"scenes":[{
		"nodes":[0,
		1,
		2,
		3]
	}],
	"nodes":[{
		"translation":[145.16102600097657,
		5.545452117919922,
		239.56243896484376],
		"rotation":[0.7071067690849304,
		0.0,
		0.0,
		-0.7071067690849304],
		"scale":[1.0,
		1.0,
		-1.0],
		"mesh":0,
		"name":"magenta"
	},
	{
		"translation":[-144.83897399902345,
		5.545452117919922,
		239.56243896484376],
		"rotation":[0.7071067690849304,
		0.0,
		0.0,
		-0.7071067690849304],
		"scale":[1.0,
		1.0,
		-1.0],
		"mesh":1,
		"name":"cyan"
	},
	{
		"translation":[0.0,
		0.0,
		0.0],
		"rotation":[0.0,
		0.0,
		0.0,
		-1.0],
		"scale":[1.0,
		1.0,
		-1.0],
		"mesh":2,
		"name":"glasses.1"
	},
	{
		"translation":[0.0,
		0.0,
		0.0],
		"rotation":[0.0,
		0.0,
		0.0,
		-1.0],
		"scale":[1.0,
		1.0,
		-1.0],
		"name":"glasses",
		"children":[4,
		5,
		6]
	},
	{
		"translation":[145.16102600097657,
		5.545452117919922,
		-239.56243896484376],
		"rotation":[-0.7071067690849304,
		0.0,
		0.0,
		-0.7071067690849304],
		"scale":[1.0,
		1.0,
		1.0],
		"mesh":3,
		"name":"magenta"
	},
	{
		"translation":[-144.83897399902345,
		5.545452117919922,
		-239.56243896484376],
		"rotation":[-0.7071067690849304,
		0.0,
		0.0,
		-0.7071067690849304],
		"scale":[1.0,
		1.0,
		1.0],
		"mesh":4,
		"name":"cyan"
	},
	{
		"mesh":5,
		"name":"glasses"
	}],
	"meshes":[{
		"primitives":[{
			"attributes":{
				"POSITION":1,
				"TEXCOORD_0":2
			},
			"indices":0,
			"material":0
		}]
	},
	{
		"primitives":[{
			"attributes":{
				"POSITION":4,
				"TEXCOORD_0":5
			},
			"indices":3,
			"material":1
		}]
	},
	{
		"primitives":[{
			"attributes":{
				"POSITION":7,
				"TEXCOORD_0":8
			},
			"indices":6,
			"material":2
		}]
	},
	{
		"primitives":[{
			"attributes":{
				"POSITION":10,
				"TEXCOORD_0":11
			},
			"indices":9,
			"material":3
		}]
	},
	{
		"primitives":[{
			"attributes":{
				"POSITION":13,
				"TEXCOORD_0":14
			},
			"indices":12,
			"material":4
		}]
	},
	{
		"primitives":[{
			"attributes":{
				"POSITION":16,
				"TEXCOORD_0":17
			},
			"indices":15,
			"material":5
		}]
	}],
	"accessors":[{
		"bufferView":0,
		"type":"SCALAR",
		"componentType":5123,
		"count":2400,
		"byteOffset":0,
		"min":[0],
		"max":[440]
	},
	{
		"bufferView":1,
		"type":"VEC3",
		"componentType":5126,
		"count":441,
		"byteOffset":0,
		"min":[-90.0,
		0.0,
		-50.0],
		"max":[90.0,
		0.0,
		50.0]
	},
	{
		"bufferView":1,
		"type":"VEC2",
		"componentType":5126,
		"count":441,
		"byteOffset":12,
		"min":[0.00734408013522625,
		0.013065814971923828],
		"max":[0.992655873298645,
		0.9869341850280762]
	},
	{
		"bufferView":2,
		"type":"SCALAR",
		"componentType":5123,
		"count":2400,
		"byteOffset":0,
		"min":[0],
		"max":[440]
	},
	{
		"bufferView":3,
		"type":"VEC3",
		"componentType":5126,
		"count":441,
		"byteOffset":0,
		"min":[-90.0,
		0.0,
		-50.0],
		"max":[90.0,
		0.0,
		50.0]
	},
	{
		"bufferView":3,
		"type":"VEC2",
		"componentType":5126,
		"count":441,
		"byteOffset":12,
		"min":[0.00734408013522625,
		0.013065814971923828],
		"max":[0.992655873298645,
		0.9869341850280762]
	},
	{
		"bufferView":4,
		"type":"SCALAR",
		"componentType":5123,
		"count":4224,
		"byteOffset":0,
		"min":[0],
		"max":[1467]
	},
	{
		"bufferView":5,
		"type":"VEC3",
		"componentType":5126,
		"count":1468,
		"byteOffset":0,
		"min":[-252.72659301757813,
		-71.01335144042969,
		-241.2911834716797],
		"max":[252.72659301757813,
		71.01335144042969,
		241.2911834716797]
	},
	{
		"bufferView":5,
		"type":"VEC2",
		"componentType":5126,
		"count":1468,
		"byteOffset":12,
		"min":[0.00902113039046526,
		0.006950789131224155],
		"max":[0.9909788966178894,
		0.993049144744873]
	},
	{
		"bufferView":6,
		"type":"SCALAR",
		"componentType":5123,
		"count":2400,
		"byteOffset":0,
		"min":[0],
		"max":[440]
	},
	{
		"bufferView":7,
		"type":"VEC3",
		"componentType":5126,
		"count":441,
		"byteOffset":0,
		"min":[-90.0,
		0.0,
		-50.0],
		"max":[90.0,
		0.0,
		50.0]
	},
	{
		"bufferView":7,
		"type":"VEC2",
		"componentType":5126,
		"count":441,
		"byteOffset":12,
		"min":[0.0,
		0.0],
		"max":[1.0,
		1.0]
	},
	{
		"bufferView":8,
		"type":"SCALAR",
		"componentType":5123,
		"count":2400,
		"byteOffset":0,
		"min":[0],
		"max":[440]
	},
	{
		"bufferView":9,
		"type":"VEC3",
		"componentType":5126,
		"count":441,
		"byteOffset":0,
		"min":[-90.0,
		0.0,
		-50.0],
		"max":[90.0,
		0.0,
		50.0]
	},
	{
		"bufferView":9,
		"type":"VEC2",
		"componentType":5126,
		"count":441,
		"byteOffset":12,
		"min":[0.0,
		0.0],
		"max":[1.0,
		1.0]
	},
	{
		"bufferView":10,
		"type":"SCALAR",
		"componentType":5123,
		"count":4224,
		"byteOffset":0,
		"min":[0],
		"max":[1759]
	},
	{
		"bufferView":11,
		"type":"VEC3",
		"componentType":5126,
		"count":1760,
		"byteOffset":0,
		"min":[-252.72659301757813,
		-71.01335144042969,
		-241.2911834716797],
		"max":[252.72659301757813,
		71.01335144042969,
		241.2911834716797]
	},
	{
		"bufferView":11,
		"type":"VEC2",
		"componentType":5126,
		"count":1760,
		"byteOffset":12,
		"min":[0.0,
		0.0],
		"max":[1.0,
		1.0]
	}],
	"bufferViews":[{
		"buffer":0,
		"byteOffset":0,
		"byteLength":4800,
		"target":34963
	},
	{
		"buffer":0,
		"byteOffset":4800,
		"byteLength":8820,
		"target":34962,
		"byteStride":20
	},
	{
		"buffer":1,
		"byteOffset":0,
		"byteLength":4800,
		"target":34963
	},
	{
		"buffer":1,
		"byteOffset":4800,
		"byteLength":8820,
		"target":34962,
		"byteStride":20
	},
	{
		"buffer":2,
		"byteOffset":0,
		"byteLength":8448,
		"target":34963
	},
	{
		"buffer":2,
		"byteOffset":8448,
		"byteLength":29360,
		"target":34962,
		"byteStride":20
	},
	{
		"buffer":3,
		"byteOffset":0,
		"byteLength":4800,
		"target":34963
	},
	{
		"buffer":3,
		"byteOffset":4800,
		"byteLength":8820,
		"target":34962,
		"byteStride":20
	},
	{
		"buffer":4,
		"byteOffset":0,
		"byteLength":4800,
		"target":34963
	},
	{
		"buffer":4,
		"byteOffset":4800,
		"byteLength":8820,
		"target":34962,
		"byteStride":20
	},
	{
		"buffer":5,
		"byteOffset":0,
		"byteLength":8448,
		"target":34963
	},
	{
		"buffer":5,
		"byteOffset":8448,
		"byteLength":35200,
		"target":34962,
		"byteStride":20
	}],
	"buffers":[{
		"uri":"data:application/octet-stream;base64,",
		"byteLength":13620
	},
	{
		"uri":"data:application/octet-stream;base64,",
		"byteLength":13620
	},
	{
		"uri":"data:application/octet-stream;base64,",
		"byteLength":37808
	},
	{
		"uri":"data:application/octet-stream;base64,",
		"byteLength":13620
	},
	{
		"uri":"data:application/octet-stream;base64,",
		"byteLength":13620
	},
	{
		"uri":"data:application/octet-stream;base64,",
		"byteLength":43648
	}],
	"images":[{
		"uri":"data:image/jpeg;base64,"
	},
	{
		"uri":"data:image/jpeg;base64,"
	},
	{
		"uri":"data:image/jpeg;base64,"
	},
	{
		"uri":"data:image/jpeg;base64,"
	},
	{
		"uri":"data:image/jpeg;base64,"
	},
	{
		"uri":"data:image/jpeg;base64,"
	}],
	"samplers":[{
		"magFilter":9729,
		"minFilter":9729,
		"wrapS":10497,
		"wrapT":10497
	},
	{
		"magFilter":9729,
		"minFilter":9729,
		"wrapS":10497,
		"wrapT":10497
	},
	{
		"magFilter":9729,
		"minFilter":9729,
		"wrapS":10497,
		"wrapT":10497
	},
	{
		"magFilter":9729,
		"minFilter":9729,
		"wrapS":10497,
		"wrapT":10497
	},
	{
		"magFilter":9729,
		"minFilter":9729,
		"wrapS":10497,
		"wrapT":10497
	},
	{
		"magFilter":9729,
		"minFilter":9729,
		"wrapS":10497,
		"wrapT":10497
	}],
	"textures":[{
		"sampler":0,
		"source":0
	},
	{
		"sampler":1,
		"source":1
	},
	{
		"sampler":2,
		"source":2
	},
	{
		"sampler":3,
		"source":3
	},
	{
		"sampler":4,
		"source":4
	},
	{
		"sampler":5,
		"source":5
	}],
	"materials":[{
		"pbrMetallicRoughness":{
			"baseColorTexture":{
				"index":0
			},
			"baseColorFactor":[1.0,
			1.0,
			1.0,
			1.0],
			"metallicFactor":0.0,
			"roughnessFactor":0.5
		},
		"emissiveFactor":[0.0,
		0.0,
		0.0],
		"alphaMode":"OPAQUE",
		"doubleSided":true
	},
	{
		"pbrMetallicRoughness":{
			"baseColorTexture":{
				"index":1
			},
			"baseColorFactor":[1.0,
			1.0,
			1.0,
			1.0],
			"metallicFactor":0.0,
			"roughnessFactor":0.5
		},
		"emissiveFactor":[0.0,
		0.0,
		0.0],
		"alphaMode":"OPAQUE",
		"doubleSided":true
	},
	{
		"pbrMetallicRoughness":{
			"baseColorFactor":[1.0,
			1.0,
			1.0,
			1.0],
			"metallicFactor":0.0,
			"roughnessFactor":0.5
		},
		"occlusionTexture":{
			"index":2,
			"strength":1.0
		},
		"emissiveTexture":{
			"index":3
		},
		"emissiveFactor":[1.0,
		1.0,
		1.0],
		"alphaMode":"OPAQUE",
		"doubleSided":true
	},
	{
		"pbrMetallicRoughness":{
			"baseColorFactor":[1.0,
			0.06274509803921569,
			0.10196078431372502,
			0.0],
			"metallicFactor":1.0,
			"roughnessFactor":0.05
		},
		"emissiveFactor":[0.0,
		0.0,
		0.0],
		"alphaMode":"BLEND",
		"doubleSided":true
	},
	{
		"pbrMetallicRoughness":{
			"baseColorFactor":[0.0,
			0.8745098039215686,
			0.984313725490196,
			0.0],
			"metallicFactor":1.0,
			"roughnessFactor":0.05
		},
		"emissiveFactor":[0.0,
		0.0,
		0.0],
		"alphaMode":"BLEND",
		"doubleSided":true
	},
	{
		"pbrMetallicRoughness":{
			"baseColorTexture":{
				"index":4
			},
			"baseColorFactor":[1.0,
			1.0,
			1.0,
			0.0],
			"metallicFactor":1.0,
			"roughnessFactor":1.0
		},
		"normalTexture":{
			"index":5,
			"scale":0.2
		},
		"emissiveFactor":[0.0,
		0.0,
		0.0],
		"alphaMode":"BLEND",
		"doubleSided":true
	}]
}