{
	"asset":{
		"version":"2.0",
		"generator":"Created using the official Cinema 4D glTF Exporter. Previous Build: 1.000x275765."
	},
	"scenes":[{
		"nodes":[0]
	}],
	"nodes":[{
		"children":[1,
		2,
		3],
		"translation":[0.001,
		0.037,
		1.597],
		"rotation":[0,
		0,
		0,
		-1],
		"scale":[1,
		1,
		-1],
		"name":"Null"
	},
	{
		"translation":[-0.001,
		-0.037,
		1.597],
		"rotation":[0,
		0,
		0,
		-1],
		"scale":[0.01,
		0.01,
		0.01],
		"mesh":0,
		"name":"glasses"
	},
	{
		"translation":[1.451,
		0.018,
		-0.799],
		"rotation":[-0.707,
		0,
		0,
		-0.707],
		"scale":[0.01,
		0.01,
		0.01],
		"mesh":1,
		"name":"magenta"
	},
	{
		"translation":[-1.449,
		0.018,
		-0.799],
		"rotation":[-0.707,
		0,
		0,
		-0.707],
		"scale":[0.01,
		0.01,
		0.01],
		"mesh":2,
		"name":"cyan"
	}],
	"meshes":[{
		"primitives":[{
			"attributes":{
				"POSITION":1,
				"TEXCOORD_0":2
			},
			"indices":0,
			"material":0
		}]
	},
	{
		"primitives":[{
			"attributes":{
				"POSITION":4,
				"TEXCOORD_0":5
			},
			"indices":3,
			"material":1
		}]
	},
	{
		"primitives":[{
			"attributes":{
				"POSITION":7,
				"TEXCOORD_0":8
			},
			"indices":6,
			"material":2
		}]
	}],
	"accessors":[{
		"bufferView":0,
		"type":"SCALAR",
		"componentType":5123,
		"count":4224,
		"max":[1467],
		"byteOffset":0,
		"min":[0]
	},
	{
		"bufferView":1,
		"type":"VEC3",
		"componentType":5126,
		"count":1468,
		"max":[252.727,
		71.013,
		241.291],
		"byteOffset":0,
		"min":[-252.727,
		-71.013,
		-241.291]
	},
	{
		"bufferView":1,
		"type":"VEC2",
		"componentType":5126,
		"count":1468,
		"max":[0.991,
		0.993],
		"byteOffset":12,
		"min":[0.009,
		0.007]
	},
	{
		"bufferView":2,
		"type":"SCALAR",
		"componentType":5123,
		"count":2400,
		"max":[440],
		"byteOffset":0,
		"min":[0]
	},
	{
		"bufferView":3,
		"type":"VEC3",
		"componentType":5126,
		"count":441,
		"max":[90,
		0,
		50],
		"byteOffset":0,
		"min":[-90,
		0,
		-50]
	},
	{
		"bufferView":3,
		"type":"VEC2",
		"componentType":5126,
		"count":441,
		"max":[0.987,
		0.993],
		"byteOffset":12,
		"min":[0.013,
		0.007]
	},
	{
		"bufferView":4,
		"type":"SCALAR",
		"componentType":5123,
		"count":2400,
		"max":[440],
		"byteOffset":0,
		"min":[0]
	},
	{
		"bufferView":5,
		"type":"VEC3",
		"componentType":5126,
		"count":441,
		"max":[90,
		0,
		50],
		"byteOffset":0,
		"min":[-90,
		0,
		-50]
	},
	{
		"bufferView":5,
		"type":"VEC2",
		"componentType":5126,
		"count":441,
		"max":[1,
		1],
		"byteOffset":12,
		"min":[0,
		0]
	}],
	"bufferViews":[{
		"buffer":0,
		"byteOffset":0,
		"byteLength":8448,
		"target":34963
	},
	{
		"buffer":0,
		"byteOffset":8448,
		"byteLength":29360,
		"target":34962,
		"byteStride":20
	},
	{
		"buffer":1,
		"byteOffset":0,
		"byteLength":4800,
		"target":34963
	},
	{
		"buffer":1,
		"byteOffset":4800,
		"byteLength":8820,
		"target":34962,
		"byteStride":20
	},
	{
		"buffer":2,
		"byteOffset":0,
		"byteLength":4800,
		"target":34963
	},
	{
		"buffer":2,
		"byteOffset":4800,
		"byteLength":8820,
		"target":34962,
		"byteStride":20
	}],
	"buffers":[{
		"uri":"data:application/octet-stream;base64,",
		"byteLength":37808
	},
	{
		"uri":"data:application/octet-stream;base64,",
		"byteLength":13620
	},
	{
		"uri":"data:application/octet-stream;base64,",
		"byteLength":13620
	}],
	"materials":[{
		"pbrMetallicRoughness":{
			"baseColorFactor":[1,
			1,
			1,
			1],
			"metallicFactor":0.58,
			"roughnessFactor":0.6
		},
		"emissiveFactor":[0,
		0,
		0],
		"alphaMode":"OPAQUE",
		"doubleSided":true
	},
	{
		"pbrMetallicRoughness":{
			"baseColorFactor":[0,
			1,
			1,
			0.4],
			"metallicFactor":1,
			"roughnessFactor":0.3
		},
		"emissiveFactor":[0,
		0.95,
		1],
		"alphaMode":"BLEND",
		"doubleSided":true
	},
	{
		"pbrMetallicRoughness":{
			"baseColorFactor":[1,
			0,
			0,
			0.4],
			"metallicFactor":1,
			"roughnessFactor":0.3
		},
		"emissiveFactor":[1,
		0,
		0],
		"alphaMode":"BLEND",
		"doubleSided":true
	}]
}