{
	"asset":{
		"version":"2.0",
		"generator":"Created using the official Cinema 4D glTF Exporter. Previous Build: 1.000x275765."
	},
	"scenes":[{
		"nodes":[0,
		1,
		2]
	}],
	"nodes":[{
		"translation":[1.452,
		0.055,
		2.396],
		"rotation":[0.707,
		0,
		0,
		-0.707],
		"scale":[0.01,
		0.01,
		-0.01],
		"mesh":0,
		"name":"magenta"
	},
	{
		"translation":[-1.448,
		0.055,
		2.396],
		"rotation":[0.707,
		0,
		0,
		-0.707],
		"scale":[0.01,
		0.01,
		-0.01],
		"mesh":1,
		"name":"cyan"
	},
	{
		"translation":[0,
		0,
		0],
		"rotation":[0,
		0,
		0,
		-1],
		"scale":[0.01,
		0.01,
		-0.01],
		"mesh":2,
		"name":"glasses"
	}],
	"meshes":[{
		"primitives":[{
			"attributes":{
				"POSITION":1,
				"NORMAL":2,
				"TEXCOORD_0":3
			},
			"indices":0,
			"material":0
		}]
	},
	{
		"primitives":[{
			"attributes":{
				"POSITION":5,
				"NORMAL":6,
				"TEXCOORD_0":7
			},
			"indices":4,
			"material":1
		}]
	},
	{
		"primitives":[{
			"attributes":{
				"POSITION":9,
				"NORMAL":10,
				"TEXCOORD_0":11
			},
			"indices":8,
			"material":2
		}]
	}],
	"accessors":[{
		"bufferView":0,
		"type":"SCALAR",
		"componentType":5123,
		"count":2400,
		"max":[440],
		"byteOffset":0,
		"min":[0]
	},
	{
		"bufferView":1,
		"type":"VEC3",
		"componentType":5126,
		"count":441,
		"max":[90,
		0,
		50],
		"byteOffset":0,
		"min":[-90,
		0,
		-50]
	},
	{
		"bufferView":1,
		"type":"VEC3",
		"componentType":5126,
		"count":441,
		"max":[0,
		1,
		0],
		"byteOffset":12,
		"min":[0,
		1,
		0]
	},
	{
		"bufferView":1,
		"type":"VEC2",
		"componentType":5126,
		"count":441,
		"max":[1,
		1],
		"byteOffset":24,
		"min":[0,
		0]
	},
	{
		"bufferView":2,
		"type":"SCALAR",
		"componentType":5123,
		"count":2400,
		"max":[440],
		"byteOffset":0,
		"min":[0]
	},
	{
		"bufferView":3,
		"type":"VEC3",
		"componentType":5126,
		"count":441,
		"max":[90,
		0,
		50],
		"byteOffset":0,
		"min":[-90,
		0,
		-50]
	},
	{
		"bufferView":3,
		"type":"VEC3",
		"componentType":5126,
		"count":441,
		"max":[0,
		1,
		0],
		"byteOffset":12,
		"min":[0,
		1,
		0]
	},
	{
		"bufferView":3,
		"type":"VEC2",
		"componentType":5126,
		"count":441,
		"max":[1,
		1],
		"byteOffset":24,
		"min":[0,
		0]
	},
	{
		"bufferView":4,
		"type":"SCALAR",
		"componentType":5123,
		"count":4224,
		"max":[2618],
		"byteOffset":0,
		"min":[0]
	},
	{
		"bufferView":5,
		"type":"VEC3",
		"componentType":5126,
		"count":2619,
		"max":[252.727,
		71.013,
		241.291],
		"byteOffset":0,
		"min":[-252.727,
		-71.013,
		-241.291]
	},
	{
		"bufferView":5,
		"type":"VEC3",
		"componentType":5126,
		"count":2619,
		"max":[1,
		1,
		1],
		"byteOffset":12,
		"min":[-1,
		-1,
		-1]
	},
	{
		"bufferView":5,
		"type":"VEC2",
		"componentType":5126,
		"count":2619,
		"max":[0.991,
		0.993],
		"byteOffset":24,
		"min":[0.009,
		0.007]
	}],
	"bufferViews":[{
		"buffer":0,
		"byteOffset":0,
		"byteLength":4800,
		"target":34963
	},
	{
		"buffer":0,
		"byteOffset":4800,
		"byteLength":14112,
		"target":34962,
		"byteStride":32
	},
	{
		"buffer":1,
		"byteOffset":0,
		"byteLength":4800,
		"target":34963
	},
	{
		"buffer":1,
		"byteOffset":4800,
		"byteLength":14112,
		"target":34962,
		"byteStride":32
	},
	{
		"buffer":2,
		"byteOffset":0,
		"byteLength":8448,
		"target":34963
	},
	{
		"buffer":2,
		"byteOffset":8448,
		"byteLength":83808,
		"target":34962,
		"byteStride":32
	}],
	"buffers":[{
		"uri":"data:application/octet-stream;base64,",
		"byteLength":18912
	},
	{
		"uri":"data:application/octet-stream;base64,",
		"byteLength":18912
	},
	{
		"uri":"data:application/octet-stream;base64,",
		"byteLength":92256
	}],
	"images":[{
		"uri":"data:image/jpeg;base64,"
	}],
	"samplers":[{
		"magFilter":9729,
		"minFilter":9729,
		"wrapS":10497,
		"wrapT":10497
	}],
	"textures":[{
		"sampler":0,
		"source":0
	}],
	"materials":[{
		"pbrMetallicRoughness":{
			"baseColorFactor":[1,
			0,
			0,
			0.36],
			"metallicFactor":0.14,
			"roughnessFactor":0.7
		},
		"emissiveFactor":[0,
		0,
		0],
		"alphaMode":"BLEND",
		"doubleSided":true
	},
	{
		"pbrMetallicRoughness":{
			"baseColorFactor":[0,
			0.888,
			1,
			0.36],
			"metallicFactor":0.14,
			"roughnessFactor":0
		},
		"emissiveFactor":[0,
		0,
		0],
		"alphaMode":"BLEND",
		"doubleSided":true
	},
	{
		"pbrMetallicRoughness":{
			"baseColorTexture":{
				"index":0
			},
			"baseColorFactor":[1,
			1,
			1,
			1],
			"metallicFactor":1,
			"roughnessFactor":1
		},
		"emissiveFactor":[0,
		0,
		0],
		"alphaMode":"OPAQUE",
		"doubleSided":true
	}]
}