{
	"asset":{
		"version":"2.0",
		"generator":"Created using the official Cinema 4D glTF Exporter. Previous Build: 1.000x275765."
	},
	"samplers":[{
		"magFilter":9729,
		"minFilter":9729,
		"wrapS":10497,
		"wrapT":10497
	},
	{
		"magFilter":9729,
		"minFilter":9729,
		"wrapS":10497,
		"wrapT":10497
	},
	{
		"magFilter":9729,
		"minFilter":9729,
		"wrapS":10497,
		"wrapT":10497
	},
	{
		"magFilter":9729,
		"minFilter":9729,
		"wrapS":10497,
		"wrapT":10497
	},
	{
		"magFilter":9729,
		"minFilter":9729,
		"wrapS":10497,
		"wrapT":10497
	},
	{
		"magFilter":9729,
		"minFilter":9729,
		"wrapS":10497,
		"wrapT":10497
	},
	{
		"magFilter":9729,
		"minFilter":9729,
		"wrapS":10497,
		"wrapT":10497
	},
	{
		"magFilter":9729,
		"minFilter":9729,
		"wrapS":10497,
		"wrapT":10497
	}],
	"scenes":[{
		"nodes":[0,
		1,
		2,
		3]
	}],
	"images":[{
		"uri":"data:image/jpeg;base64,"
	},
	{
		"uri":"data:image/jpeg;base64,"
	},
	{
		"uri":"data:image/jpeg;base64,"
	},
	{
		"uri":"data:image/jpeg;base64,"
	},
	{
		"uri":"data:image/jpeg;base64,"
	},
	{
		"uri":"data:image/jpeg;base64,"
	},
	{
		"uri":"data:image/jpeg;base64,"
	},
	{
		"uri":"data:image/jpeg;base64,"
	}],
	"nodes":[{
		"translation":[-1.448,
		0.055,
		2.396],
		"rotation":[0.707,
		0,
		0,
		-0.707],
		"scale":[0.01,
		0.01,
		-0.01],
		"mesh":0,
		"name":"cyan"
	},
	{
		"translation":[1.452,
		0.055,
		2.396],
		"rotation":[0.707,
		0,
		0,
		-0.707],
		"scale":[0.01,
		0.01,
		-0.01],
		"mesh":1,
		"name":"magenta"
	},
	{
		"translation":[0,
		0,
		0],
		"rotation":[0,
		0,
		0,
		-1],
		"scale":[0.01,
		0.01,
		-0.01],
		"mesh":2,
		"name":"glasses.1"
	},
	{
		"translation":[0,
		0,
		0],
		"rotation":[0,
		0,
		0,
		-1],
		"scale":[0.01,
		0.01,
		-0.01],
		"name":"glasses",
		"children":[4,
		5,
		6]
	},
	{
		"translation":[145.161,
		5.545,
		-239.562],
		"rotation":[-0.707,
		0,
		0,
		-0.707],
		"scale":[1,
		1,
		1],
		"mesh":3,
		"name":"magenta"
	},
	{
		"translation":[-144.839,
		5.545,
		-239.562],
		"rotation":[-0.707,
		0,
		0,
		-0.707],
		"scale":[1,
		1,
		1],
		"mesh":4,
		"name":"cyan"
	},
	{
		"mesh":5,
		"name":"glasses"
	}],
	"bufferViews":[{
		"buffer":0,
		"byteOffset":0,
		"byteLength":4800,
		"target":34963
	},
	{
		"buffer":0,
		"byteOffset":4800,
		"byteLength":8820,
		"target":34962,
		"byteStride":20
	},
	{
		"buffer":1,
		"byteOffset":0,
		"byteLength":4800,
		"target":34963
	},
	{
		"buffer":1,
		"byteOffset":4800,
		"byteLength":8820,
		"target":34962,
		"byteStride":20
	},
	{
		"buffer":2,
		"byteOffset":0,
		"byteLength":8448,
		"target":34963
	},
	{
		"buffer":2,
		"byteOffset":8448,
		"byteLength":29360,
		"target":34962,
		"byteStride":20
	},
	{
		"buffer":3,
		"byteOffset":0,
		"byteLength":4800,
		"target":34963
	},
	{
		"buffer":3,
		"byteOffset":4800,
		"byteLength":8820,
		"target":34962,
		"byteStride":20
	},
	{
		"buffer":4,
		"byteOffset":0,
		"byteLength":4800,
		"target":34963
	},
	{
		"buffer":4,
		"byteOffset":4800,
		"byteLength":8820,
		"target":34962,
		"byteStride":20
	},
	{
		"buffer":5,
		"byteOffset":0,
		"byteLength":8448,
		"target":34963
	},
	{
		"buffer":5,
		"byteOffset":8448,
		"byteLength":35200,
		"target":34962,
		"byteStride":20
	}],
	"meshes":[{
		"primitives":[{
			"attributes":{
				"POSITION":1,
				"TEXCOORD_0":2
			},
			"indices":0,
			"material":0
		}]
	},
	{
		"primitives":[{
			"attributes":{
				"POSITION":4,
				"TEXCOORD_0":5
			},
			"indices":3,
			"material":1
		}]
	},
	{
		"primitives":[{
			"attributes":{
				"POSITION":7,
				"TEXCOORD_0":8
			},
			"indices":6,
			"material":2
		}]
	},
	{
		"primitives":[{
			"attributes":{
				"POSITION":10,
				"TEXCOORD_0":11
			},
			"indices":9,
			"material":3
		}]
	},
	{
		"primitives":[{
			"attributes":{
				"POSITION":13,
				"TEXCOORD_0":14
			},
			"indices":12,
			"material":4
		}]
	},
	{
		"primitives":[{
			"attributes":{
				"POSITION":16,
				"TEXCOORD_0":17
			},
			"indices":15,
			"material":5
		}]
	}],
	"buffers":[{
		"uri":"data:application/octet-stream;base64,",
		"byteLength":13620
	},
	{
		"uri":"data:application/octet-stream;base64,",
		"byteLength":13620
	},
	{
		"uri":"data:application/octet-stream;base64,",
		"byteLength":37808
	},
	{
		"uri":"data:application/octet-stream;base64,",
		"byteLength":13620
	},
	{
		"uri":"data:application/octet-stream;base64,",
		"byteLength":13620
	},
	{
		"uri":"data:application/octet-stream;base64,",
		"byteLength":43648
	}],
	"accessors":[{
		"bufferView":0,
		"type":"SCALAR",
		"componentType":5123,
		"count":2400,
		"byteOffset":0,
		"min":[0],
		"max":[440]
	},
	{
		"bufferView":1,
		"type":"VEC3",
		"componentType":5126,
		"count":441,
		"byteOffset":0,
		"min":[-90,
		0,
		-50],
		"max":[90,
		0,
		50]
	},
	{
		"bufferView":1,
		"type":"VEC2",
		"componentType":5126,
		"count":441,
		"byteOffset":12,
		"min":[0.007,
		0.013],
		"max":[0.993,
		0.987]
	},
	{
		"bufferView":2,
		"type":"SCALAR",
		"componentType":5123,
		"count":2400,
		"byteOffset":0,
		"min":[0],
		"max":[440]
	},
	{
		"bufferView":3,
		"type":"VEC3",
		"componentType":5126,
		"count":441,
		"byteOffset":0,
		"min":[-90,
		0,
		-50],
		"max":[90,
		0,
		50]
	},
	{
		"bufferView":3,
		"type":"VEC2",
		"componentType":5126,
		"count":441,
		"byteOffset":12,
		"min":[0.007,
		0.013],
		"max":[0.993,
		0.987]
	},
	{
		"bufferView":4,
		"type":"SCALAR",
		"componentType":5123,
		"count":4224,
		"byteOffset":0,
		"min":[0],
		"max":[1467]
	},
	{
		"bufferView":5,
		"type":"VEC3",
		"componentType":5126,
		"count":1468,
		"byteOffset":0,
		"min":[-252.727,
		-71.013,
		-241.291],
		"max":[252.727,
		71.013,
		241.291]
	},
	{
		"bufferView":5,
		"type":"VEC2",
		"componentType":5126,
		"count":1468,
		"byteOffset":12,
		"min":[0.009,
		0.007],
		"max":[0.991,
		0.993]
	},
	{
		"bufferView":6,
		"type":"SCALAR",
		"componentType":5123,
		"count":2400,
		"byteOffset":0,
		"min":[0],
		"max":[440]
	},
	{
		"bufferView":7,
		"type":"VEC3",
		"componentType":5126,
		"count":441,
		"byteOffset":0,
		"min":[-90,
		0,
		-50],
		"max":[90,
		0,
		50]
	},
	{
		"bufferView":7,
		"type":"VEC2",
		"componentType":5126,
		"count":441,
		"byteOffset":12,
		"min":[0,
		0],
		"max":[1,
		1]
	},
	{
		"bufferView":8,
		"type":"SCALAR",
		"componentType":5123,
		"count":2400,
		"byteOffset":0,
		"min":[0],
		"max":[440]
	},
	{
		"bufferView":9,
		"type":"VEC3",
		"componentType":5126,
		"count":441,
		"byteOffset":0,
		"min":[-90,
		0,
		-50],
		"max":[90,
		0,
		50]
	},
	{
		"bufferView":9,
		"type":"VEC2",
		"componentType":5126,
		"count":441,
		"byteOffset":12,
		"min":[0,
		0],
		"max":[1,
		1]
	},
	{
		"bufferView":10,
		"type":"SCALAR",
		"componentType":5123,
		"count":4224,
		"byteOffset":0,
		"min":[0],
		"max":[1759]
	},
	{
		"bufferView":11,
		"type":"VEC3",
		"componentType":5126,
		"count":1760,
		"byteOffset":0,
		"min":[-252.727,
		-71.013,
		-241.291],
		"max":[252.727,
		71.013,
		241.291]
	},
	{
		"bufferView":11,
		"type":"VEC2",
		"componentType":5126,
		"count":1760,
		"byteOffset":12,
		"min":[0,
		0],
		"max":[1,
		1]
	}],
	"textures":[{
		"sampler":0,
		"source":0
	},
	{
		"sampler":1,
		"source":1
	},
	{
		"sampler":2,
		"source":2
	},
	{
		"sampler":3,
		"source":3
	},
	{
		"sampler":4,
		"source":4
	},
	{
		"sampler":5,
		"source":5
	},
	{
		"sampler":6,
		"source":6
	},
	{
		"sampler":7,
		"source":7
	}],
	"materials":[{
		"pbrMetallicRoughness":{
			"baseColorTexture":{
				"index":0
			},
			"baseColorFactor":[1,
			1,
			1,
			1],
			"metallicFactor":0,
			"roughnessFactor":0.5
		},
		"occlusionTexture":{
			"index":1,
			"strength":1
		},
		"emissiveFactor":[0,
		0,
		0],
		"alphaMode":"OPAQUE",
		"doubleSided":true
	},
	{
		"pbrMetallicRoughness":{
			"baseColorTexture":{
				"index":2
			},
			"baseColorFactor":[1,
			1,
			1,
			1],
			"metallicFactor":0,
			"roughnessFactor":0.5
		},
		"occlusionTexture":{
			"index":3,
			"strength":1
		},
		"emissiveFactor":[0,
		0,
		0],
		"alphaMode":"OPAQUE",
		"doubleSided":true
	},
	{
		"pbrMetallicRoughness":{
			"baseColorFactor":[1,
			1,
			1,
			1],
			"metallicFactor":0,
			"roughnessFactor":0.5
		},
		"occlusionTexture":{
			"index":4,
			"strength":1
		},
		"emissiveTexture":{
			"index":5
		},
		"emissiveFactor":[1,
		1,
		1],
		"alphaMode":"OPAQUE",
		"doubleSided":true
	},
	{
		"pbrMetallicRoughness":{
			"baseColorFactor":[1,
			0.063,
			0.102,
			0],
			"metallicFactor":1,
			"roughnessFactor":0.05
		},
		"emissiveFactor":[0,
		0,
		0],
		"alphaMode":"BLEND",
		"doubleSided":true
	},
	{
		"pbrMetallicRoughness":{
			"baseColorFactor":[0,
			0.888,
			1,
			0],
			"metallicFactor":1,
			"roughnessFactor":0.05
		},
		"emissiveFactor":[0,
		0,
		0],
		"alphaMode":"BLEND",
		"doubleSided":true
	},
	{
		"pbrMetallicRoughness":{
			"baseColorTexture":{
				"index":6
			},
			"baseColorFactor":[1,
			1,
			1,
			0],
			"metallicFactor":1,
			"roughnessFactor":1
		},
		"normalTexture":{
			"index":7,
			"scale":0.28
		},
		"emissiveFactor":[0,
		0,
		0],
		"alphaMode":"BLEND",
		"doubleSided":true
	}]
}