{
  "asset": {
    "version": "2.0",
    "generator": "THREE.GLTFExporter"
  },
  "scenes": [
    {
      "nodes": [
        0,
        4,
        5
      ],
      "name": "Scene"
    }
  ],
  "scene": 0,
  "nodes": [
    {
      "matrix": [
        1,
        0,
        0,
        0,
        0,
        1,
        0,
        0,
        0,
        0,
        1,
        0,
        -10.441990589535642,
        -1.2668938334553648,
        8.697594917711992,
        1
      ],
      "name": "DirectionalLight",
      "extensions": {
        "KHR_lights_punctual": {
          "light": 0
        }
      }
    },
    {
      "matrix": [
        0.01,
        0,
        0,
        0,
        0,
        0.000003020000000001355,
        -0.009996979999999999,
        0,
        0,
        -0.009996979999999999,
        -0.000003020000000001355,
        0,
        1.452,
        0.055,
        2.396,
        1
      ],
      "name": "magenta",
      "mesh": 0
    },
    {
      "matrix": [
        0.01,
        0,
        0,
        0,
        0,
        0.000003020000000001355,
        -0.009996979999999999,
        0,
        0,
        -0.009996979999999999,
        -0.000003020000000001355,
        0,
        -1.448,
        0.055,
        2.396,
        1
      ],
      "name": "cyan",
      "mesh": 1
    },
    {
      "matrix": [
        0.01,
        0,
        0,
        0,
        0,
        0.01,
        0,
        0,
        0,
        0,
        -0.01,
        0,
        0,
        0,
        0,
        1
      ],
      "name": "glasses1",
      "mesh": 2
    },
    {
      "matrix": [
        0.9357915440814756,
        0,
        0.35255380585891816,
        0,
        0,
        1,
        0,
        0,
        -0.35255380585891816,
        0,
        0.9357915440814756,
        0,
        0,
        0,
        0,
        1
      ],
      "name": "new_3d-anaglyph_v21-flatshade.gltf",
      "children": [
        1,
        2,
        3
      ]
    },
    {
      "matrix": [
        1,
        0,
        0,
        0,
        0,
        1,
        0,
        0,
        0,
        0,
        1,
        0,
        -0.3519771532683844,
        1.919631354192207,
        5.710069002314029,
        1
      ],
      "name": "PointLight",
      "extensions": {
        "KHR_lights_punctual": {
          "light": 1
        }
      }
    }
  ],
  "extensions": {
    "KHR_lights_punctual": {
      "lights": [
        {
          "name": "DirectionalLight",
          "color": [
            1,
            1,
            1
          ],
          "intensity": 1,
          "type": "directional"
        },
        {
          "name": "PointLight",
          "color": [
            1,
            1,
            1
          ],
          "intensity": 1,
          "type": "point"
        }
      ]
    }
  },
  "bufferViews": [
    {
      "buffer": 0,
      "byteOffset": 0,
      "byteLength": 5292,
      "target": 34962,
      "byteStride": 12
    },
    {
      "buffer": 0,
      "byteOffset": 5292,
      "byteLength": 3528,
      "target": 34962,
      "byteStride": 8
    },
    {
      "buffer": 0,
      "byteOffset": 8820,
      "byteLength": 4800,
      "target": 34963
    },
    {
      "buffer": 0,
      "byteOffset": 13620,
      "byteLength": 5292,
      "target": 34962,
      "byteStride": 12
    },
    {
      "buffer": 0,
      "byteOffset": 18912,
      "byteLength": 3528,
      "target": 34962,
      "byteStride": 8
    },
    {
      "buffer": 0,
      "byteOffset": 22440,
      "byteLength": 4800,
      "target": 34963
    },
    {
      "buffer": 0,
      "byteOffset": 27240,
      "byteLength": 17616,
      "target": 34962,
      "byteStride": 12
    },
    {
      "buffer": 0,
      "byteOffset": 44856,
      "byteLength": 11744,
      "target": 34962,
      "byteStride": 8
    },
    {
      "buffer": 0,
      "byteOffset": 56600,
      "byteLength": 29360,
      "target": 34962,
      "byteStride": 8
    },
    {
      "buffer": 0,
      "byteOffset": 85960,
      "byteLength": 8448,
      "target": 34963
    }
  ],
  "buffers": [
    {
      "byteLength": 94408,
      "uri": "data:application/octet-stream;base64,"
    }
  ],
  "accessors": [
    {
      "bufferView": 0,
      "componentType": 5126,
      "count": 441,
      "max": [
        72,
        90,
        81
      ],
      "min": [
        -90,
        -72,
        -81
      ],
      "type": "VEC3"
    },
    {
      "bufferView": 1,
      "componentType": 5126,
      "count": 441,
      "max": [
        90,
        90
      ],
      "min": [
        -90,
        -90
      ],
      "type": "VEC2"
    },
    {
      "bufferView": 2,
      "componentType": 5123,
      "count": 2400,
      "max": [
        440
      ],
      "min": [
        0
      ],
      "type": "SCALAR"
    },
    {
      "bufferView": 3,
      "componentType": 5126,
      "count": 441,
      "max": [
        72,
        90,
        81
      ],
      "min": [
        -90,
        -72,
        -81
      ],
      "type": "VEC3"
    },
    {
      "bufferView": 4,
      "componentType": 5126,
      "count": 441,
      "max": [
        90,
        90
      ],
      "min": [
        -90,
        -90
      ],
      "type": "VEC2"
    },
    {
      "bufferView": 5,
      "componentType": 5123,
      "count": 2400,
      "max": [
        440
      ],
      "min": [
        0
      ],
      "type": "SCALAR"
    },
    {
      "bufferView": 6,
      "componentType": 5126,
      "count": 1468,
      "max": [
        252.72659301757812,
        252.72659301757812,
        252.72659301757812
      ],
      "min": [
        -252.72659301757812,
        -252.72659301757812,
        -252.72659301757812
      ],
      "type": "VEC3"
    },
    {
      "bufferView": 7,
      "componentType": 5126,
      "count": 1468,
      "max": [
        252.72659301757812,
        252.72659301757812
      ],
      "min": [
        -252.72659301757812,
        -252.72659301757812
      ],
      "type": "VEC2"
    },
    {
      "bufferView": 8,
      "componentType": 5126,
      "count": 3670,
      "max": [
        252.72659301757812,
        252.72659301757812
      ],
      "min": [
        -252.72659301757812,
        -252.72659301757812
      ],
      "type": "VEC2"
    },
    {
      "bufferView": 9,
      "componentType": 5123,
      "count": 4224,
      "max": [
        1467
      ],
      "min": [
        0
      ],
      "type": "SCALAR"
    }
  ],
  "materials": [
    {
      "pbrMetallicRoughness": {
        "baseColorFactor": [
          0,
          1,
          1,
          0.4
        ],
        "metallicFactor": 1,
        "roughnessFactor": 0.3
      },
      "emissiveFactor": [
        0,
        1,
        0.9921568627450981
      ],
      "alphaMode": "BLEND",
      "doubleSided": true
    },
    {
      "pbrMetallicRoughness": {
        "baseColorFactor": [
          1,
          0,
          0,
          0.4
        ],
        "metallicFactor": 1,
        "roughnessFactor": 0.3
      },
      "emissiveFactor": [
        1,
        0,
        0.027450980392156862
      ],
      "alphaMode": "BLEND",
      "doubleSided": true
    },
    {
      "pbrMetallicRoughness": {
        "metallicFactor": 0.58,
        "roughnessFactor": 0.28
      },
      "occlusionTexture": {
        "index": 0,
        "texCoord": 1
      },
      "doubleSided": true
    }
  ],
  "meshes": [
    {
      "primitives": [
        {
          "mode": 4,
          "attributes": {
            "POSITION": 0,
            "TEXCOORD_0": 1
          },
          "indices": 2,
          "material": 0
        }
      ]
    },
    {
      "primitives": [
        {
          "mode": 4,
          "attributes": {
            "POSITION": 3,
            "TEXCOORD_0": 4
          },
          "indices": 5,
          "material": 1
        }
      ]
    },
    {
      "primitives": [
        {
          "mode": 4,
          "attributes": {
            "POSITION": 6,
            "TEXCOORD_0": 7,
            "TEXCOORD_1": 8
          },
          "indices": 9,
          "material": 2
        }
      ]
    }
  ],
  "textures": [
    {
      "sampler": 0,
      "source": 0
    }
  ],
  "samplers": [
    {
      "magFilter": 9987,
      "minFilter": 9987,
      "wrapS": 10497,
      "wrapT": 10497
    }
  ],
  "images": [
    {
      "mimeType": "image/jpeg",
      "uri": "data:image/jpeg;base64,"
    }
  ],
  "extensionsUsed": [
    "KHR_lights_punctual"
  ]
}