<svg xmlns="http://www.w3.org/2000/svg" viewBox="0 0 53.61 49.82"><title>ej-avatar_v01</title><path d="M42.36,5.2a5.37,5.37,0,0,1,.41-2.09,4.87,4.87,0,0,1,1.12-1.65A5.1,5.1,0,0,1,45.65.39,6.49,6.49,0,0,1,48,0a5.74,5.74,0,0,1,4.13,1.46A4.94,4.94,0,0,1,53.61,5.2,4.94,4.94,0,0,1,52.08,9,5.74,5.74,0,0,1,48,10.41a6.49,6.49,0,0,1-2.3-.39A5.26,5.26,0,0,1,43.89,9a4.82,4.82,0,0,1-1.12-1.66A5.34,5.34,0,0,1,42.36,5.2Z" style="fill:#fff"/><polygon points="36.69 20.39 46.68 20.39 46.68 44.84 6.91 44.84 6.91 44.84 0 44.84 0 49.82 6.19 49.82 6.19 49.82 53.59 49.82 53.59 15.59 36.69 15.59 36.69 20.39" style="fill:#fff"/><polygon points="36.19 30.25 6.91 30.25 6.91 19.62 27.91 19.62 27.91 15.62 6.91 15.62 6.91 4.81 36.19 4.81 36.19 0 0 0 0 35.23 36.19 35.23 36.19 30.25" style="fill:#fff"/></svg>